<svg xmlns="http://www.w3.org/2000/svg" id="mainsvg" width="892.2836914062501" height="989.0000000000001" viewBox="-10 -10 811.1669921875 900"><defs><marker id="arrow" viewBox="0 0 10 10" refX="10" refY="5" markerWidth="5" markerHeight="5" orient="auto-start-reverse" fill="black"><path stroke="black" d="M 0 0 L 10 5 L 0 10 z"/></marker><marker id="Many" viewBox="0 0 16 16" refX="15" refY="8" markerWidth="15" markerHeight="15" orient="auto-start-reverse"><path stroke="black" d="M0 8H15M15 15L2 8L15 1" fill="none"/></marker><marker id="ZeroOrOne" viewBox="0 0 16 10" refX="15" refY="5" markerWidth="21" markerHeight="21" orient="auto-start-reverse"><path d="M9 5H16" stroke="black" fill="none"/><circle cx="5" cy="5" r="4.5" stroke="black" fill="#fff"/><path d="M12 0L12 10" stroke="black" fill="none"/></marker><marker id="OneOnlyOne" viewBox="0 0 10 14" refX="10" refY="7" markerWidth="13" markerHeight="13" orient="auto-start-reverse"><path d="M0 7H4M4 7H7M4 7V0M4 7V14M7 7H10M7 7V0M7 7V14" stroke="black" fill="none"/></marker><marker id="OneOrMany" viewBox="0 0 16 16" refX="15" refY="8" markerWidth="15" markerHeight="15" orient="auto-start-reverse"><path stroke="black" d="M2 1V15M2 8L15 15M2 8L15 1M2 8H0M2 8H15" fill="none"/></marker><marker id="ZeroOrMany" viewBox="0 0 25 16" refX="23" refY="8" markerWidth="25" markerHeight="25" orient="auto-start-reverse"><path d="M13 8H27M27 15L14 8L27 1" stroke="black" fill="none"/><path d="M13.5 7.5C13.5 10.7795 10.6254 13.5 7 13.5C3.37461 13.5 0.5 10.7795 0.5 7.5C0.5 4.22054 3.37461 1.5 7 1.5C10.6254 1.5 13.5 4.22054 13.5 7.5Z" stroke="black" fill="#fff"/></marker><marker id="aggregation" viewBox="0 0 10 6" refX="9.3" refY="2.8" markerWidth="23" markerHeight="15" orient="auto-start-reverse"><path stroke="black" fill="#fff" stroke-width="0.7" d="M1.01614 2.82609L5 0.574341L8.98386 2.82609L5 5.07783L1.01614 2.82609Z"/></marker><marker id="composition" viewBox="0 0 10 6" refX="9.7" refY="2.8" markerWidth="18" markerHeight="15" orient="auto-start-reverse"><path stroke="black" fill="black" d="M1.01614 2.82609L5 0.574341L8.98386 2.82609L5 5.07783L1.01614 2.82609Z"/></marker><marker id="implementation" viewBox="0 0 8 10" refX="8" refY="5" markerWidth="20" markerHeight="20" orient="auto-start-reverse"><path stroke="black" fill="#fff" stroke-width="0.7" d="M0.750001 1.10289L7.5 5L0.750001 8.89712L0.750001 1.10289Z"/></marker><marker id="dependency" viewBox="0 0 12 12" refX="11" refY="6" markerWidth="12" markerHeight="11" orient="auto-start-reverse"><path stroke="black" fill="#fff" d="M1 5.93162H10.886M10.886 5.93162L1 0.5M10.886 5.93162L1 11"/></marker><marker id="inheritance" viewBox="0 0 8 10" refX="8" refY="5" markerWidth="20" markerHeight="20" orient="auto-start-reverse"><path stroke="black" fill="#fff" stroke-width="0.7" d="M0.750001 1.10289L7.5 5L0.750001 8.89712L0.750001 1.10289Z"/></marker><marker id="association" viewBox="0 0 12 12" refX="11" refY="6" markerWidth="12" markerHeight="11" orient="auto-start-reverse"><path stroke="black" d="M1 5.93162H10.886M10.886 5.93162L1 0.5M10.886 5.93162L1 11"/></marker><filter id="shadowOLD" x="-50%" y="-50%" width="250%" height="250%"><feDropShadow flood-color="black" flood-opacity="0.3" dx="1" dy="1" stdDeviation="2"> </feDropShadow></filter><filter id="shadow-path" filterUnits="userSpaceOnUse" x="-10" y="-10" width="811.1669921875px" height="890px"><feDropShadow flood-color="black" flood-opacity="0.1" dx="1" dy="1" stdDeviation="1"> </feDropShadow></filter><filter id="shadow" filterUnits="userSpaceOnUse" x="-10" y="-10" width="911.1669921875px" height="990px"><feDropShadow flood-color="black" flood-opacity="0.1" dx="1" dy="1" stdDeviation="1"> </feDropShadow></filter></defs><rect x="-10" y="-10" width="811.1669921875" height="890" fill="#fff"/><g transform="translate(0, 0)"><rect width="791.1669921875" height="870" stroke="black" fill="#ffffff" stroke-width="2" transform="translate(0, 0)" rx="2"/><g transform="translate(4, 4)"><rect width="82.7041015625" height="24" stroke="black" fill="none" stroke-width="0" transform="translate(0, 0)" rx="0"/><text fill="black" font-size="14" font-weight="normal" transform="translate(4, 4)" alignment-baseline="middle" font-family="Arial"><tspan x="0" dy="14" font-family="Arial" font-size="14" font-weight="normal">Architecture</tspan></text></g><g transform="translate(8, 40)"><rect width="775.1669921875" height="178" stroke="black" fill="#e6e6e6" stroke-width="2" transform="translate(0, 0)" rx="2"/><g transform="translate(4, 4)"><rect width="38.3525390625" height="24" stroke="black" fill="none" stroke-width="0" transform="translate(0, 0)" rx="0"/><text fill="black" font-size="14" font-weight="normal" transform="translate(4, 4)" alignment-baseline="middle" font-family="Arial"><tspan x="0" dy="14" font-family="Arial" font-size="14" font-weight="normal">Core</tspan></text></g><g transform="translate(8, 40)"><rect width="91.305419921875" height="130" stroke="black" fill="white" stroke-width="2" transform="translate(0, 0)" rx="3"/><text fill="black" font-size="16" font-weight="normal" transform="translate(27.8636474609375, 56)" alignment-baseline="middle" font-family="Arial"><tspan x="0" dy="16" font-family="Arial" font-size="16" font-weight="normal">Math</tspan></text></g><g transform="translate(107.305419921875, 40)"><rect width="152.664794921875" height="130" stroke="black" fill="white" stroke-width="2" transform="translate(0, 0)" rx="3"/><text fill="black" font-size="16" font-weight="normal" transform="translate(27.8636474609375, 56)" alignment-baseline="middle" font-family="Arial"><tspan x="0" dy="16" font-family="Arial" font-size="16" font-weight="normal">Containers(?)</tspan></text></g><g transform="translate(267.97021484375, 40)"><rect width="82.430419921875" height="130" stroke="black" fill="white" stroke-width="2" transform="translate(0, 0)" rx="3"/><text fill="black" font-size="16" font-weight="normal" transform="translate(27.8636474609375, 56)" alignment-baseline="middle" font-family="Arial"><tspan x="0" dy="16" font-family="Arial" font-size="16" font-weight="normal">Log</tspan></text></g><g transform="translate(358.400634765625, 40)"><rect width="408.766357421875" height="130" stroke="black" fill="#cccccc" stroke-width="2" transform="translate(0, 0)" rx="2"/><g transform="translate(4, 4)"><rect width="113.0419921875" height="24" stroke="black" fill="none" stroke-width="0" transform="translate(0, 0)" rx="0"/><text fill="black" font-size="14" font-weight="normal" transform="translate(4, 4)" alignment-baseline="middle" font-family="Arial"><tspan x="0" dy="14" font-family="Arial" font-size="14" font-weight="normal">Platform Specific</tspan></text></g><g transform="translate(8, 40)"><rect width="143.086181640625" height="82" stroke="black" fill="#b3b3b3" stroke-width="2" transform="translate(0, 0)" rx="2"/><g transform="translate(4, 4)"><rect width="49.2490234375" height="24" stroke="black" fill="none" stroke-width="0" transform="translate(0, 0)" rx="0"/><text fill="black" font-size="14" font-weight="normal" transform="translate(4, 4)" alignment-baseline="middle" font-family="Arial"><tspan x="0" dy="14" font-family="Arial" font-size="14" font-weight="normal">Mobile</tspan></text></g><g transform="translate(8, 40)"><rect width="76.0040283203125" height="34" stroke="black" fill="white" stroke-width="2" transform="translate(0, 0)" rx="3"/><text fill="black" font-size="16" font-weight="normal" transform="translate(11.31060791015625, 8)" alignment-baseline="middle" font-family="Arial"><tspan x="0" dy="16" font-family="Arial" font-size="16" font-weight="normal">android</tspan></text></g><g transform="translate(92.0040283203125, 40)"><rect width="43.0821533203125" height="34" stroke="black" fill="white" stroke-width="2" transform="translate(0, 0)" rx="3"/><text fill="black" font-size="16" font-weight="normal" transform="translate(11.31060791015625, 8)" alignment-baseline="middle" font-family="Arial"><tspan x="0" dy="16" font-family="Arial" font-size="16" font-weight="normal">ios</tspan></text></g></g><g transform="translate(159.086181640625, 40)"><rect width="175.078369140625" height="82" stroke="black" fill="#b3b3b3" stroke-width="2" transform="translate(0, 0)" rx="2"/><g transform="translate(4, 4)"><rect width="59.3662109375" height="24" stroke="black" fill="none" stroke-width="0" transform="translate(0, 0)" rx="0"/><text fill="black" font-size="14" font-weight="normal" transform="translate(4, 4)" alignment-baseline="middle" font-family="Arial"><tspan x="0" dy="14" font-family="Arial" font-size="14" font-weight="normal">Desktop</tspan></text></g><g transform="translate(8, 40)"><rect width="44.429768880208336" height="34" stroke="black" fill="white" stroke-width="2" transform="translate(0, 0)" rx="3"/><text fill="black" font-size="16" font-weight="normal" transform="translate(10.207071940104168, 8)" alignment-baseline="middle" font-family="Arial"><tspan x="0" dy="16" font-family="Arial" font-size="16" font-weight="normal">win</tspan></text></g><g transform="translate(60.429768880208336, 40)"><rect width="45.320393880208336" height="34" stroke="black" fill="white" stroke-width="2" transform="translate(0, 0)" rx="3"/><text fill="black" font-size="16" font-weight="normal" transform="translate(10.207071940104168, 8)" alignment-baseline="middle" font-family="Arial"><tspan x="0" dy="16" font-family="Arial" font-size="16" font-weight="normal">osx</tspan></text></g><g transform="translate(113.75016276041667, 40)"><rect width="53.328206380208336" height="34" stroke="black" fill="white" stroke-width="2" transform="translate(0, 0)" rx="3"/><text fill="black" font-size="16" font-weight="normal" transform="translate(10.207071940104168, 8)" alignment-baseline="middle" font-family="Arial"><tspan x="0" dy="16" font-family="Arial" font-size="16" font-weight="normal">linux</tspan></text></g></g><g transform="translate(342.16455078125, 40)"><rect width="58.601806640625" height="82" stroke="black" fill="white" stroke-width="2" transform="translate(0, 0)" rx="3"/><text fill="black" font-size="16" font-weight="normal" transform="translate(14.6212158203125, 32)" alignment-baseline="middle" font-family="Arial"><tspan x="0" dy="16" font-family="Arial" font-size="16" font-weight="normal">web</tspan></text></g></g></g><g transform="translate(8, 226)"><rect width="775.1669921875" height="440" stroke="black" fill="#e6e6e6" stroke-width="2" transform="translate(0, 0)" rx="2"/><g transform="translate(4, 4)"><rect width="108.4072265625" height="24" stroke="black" fill="none" stroke-width="0" transform="translate(0, 0)" rx="0"/><text fill="black" font-size="14" font-weight="normal" transform="translate(4, 4)" alignment-baseline="middle" font-family="Arial"><tspan x="0" dy="14" font-family="Arial" font-size="14" font-weight="normal">Engine Modules</tspan></text></g><g transform="translate(8, 40)"><rect width="104.0546875" height="392" stroke="black" fill="#cccccc" stroke-width="2" transform="translate(0, 0)" rx="2"/><g transform="translate(4, 4)"><rect width="85.8076171875" height="24" stroke="black" fill="none" stroke-width="0" transform="translate(0, 0)" rx="0"/><text fill="black" font-size="14" font-weight="normal" transform="translate(4, 4)" alignment-baseline="middle" font-family="Arial"><tspan x="0" dy="14" font-family="Arial" font-size="14" font-weight="normal">Orchestrator</tspan></text></g><g transform="translate(8, 40)"><rect width="88.0546875" height="66" stroke="black" fill="white" stroke-width="2" transform="translate(0, 0)" rx="3"/><text fill="black" font-size="16" font-weight="normal" transform="translate(12.44921875, 15)" alignment-baseline="middle" font-family="Arial"><tspan x="0" dy="16" font-family="Arial" font-size="16" font-weight="normal">Time</tspan><tspan x="0" dy="16" font-family="Arial" font-size="16" font-weight="normal">Manager</tspan></text></g><g transform="translate(8, 114)"><rect width="88.0546875" height="66" stroke="black" fill="white" stroke-width="2" transform="translate(0, 0)" rx="3"/><text fill="black" font-size="16" font-weight="normal" transform="translate(8, 15)" alignment-baseline="middle" font-family="Arial"><tspan x="0" dy="16" font-family="Arial" font-size="16" font-weight="normal">Job</tspan><tspan x="0" dy="16" font-family="Arial" font-size="16" font-weight="normal">Scheduler</tspan></text></g><g transform="translate(8, 188)"><rect width="88.0546875" height="48" stroke="black" fill="white" stroke-width="2" transform="translate(0, 0)" rx="3"/><text fill="black" font-size="16" font-weight="normal" transform="translate(35.578125, 15)" alignment-baseline="middle" font-family="Arial"><tspan x="0" dy="16" font-family="Arial" font-size="16" font-weight="normal">IO</tspan></text></g><g transform="translate(8, 244)"><rect width="88.0546875" height="66" stroke="black" fill="white" stroke-width="2" transform="translate(0, 0)" rx="3"/><text fill="black" font-size="16" font-weight="normal" transform="translate(13.34375, 15)" alignment-baseline="middle" font-family="Arial"><tspan x="0" dy="16" font-family="Arial" font-size="16" font-weight="normal">Predict</tspan><tspan x="0" dy="16" font-family="Arial" font-size="16" font-weight="normal">Rollback</tspan></text></g><g transform="translate(8, 318)"><rect width="88.0546875" height="66" stroke="black" fill="white" stroke-width="2" transform="translate(0, 0)" rx="3"/><text fill="black" font-size="16" font-weight="normal" transform="translate(12.44921875, 15)" alignment-baseline="middle" font-family="Arial"><tspan x="0" dy="16" font-family="Arial" font-size="16" font-weight="normal">Plugin</tspan><tspan x="0" dy="16" font-family="Arial" font-size="16" font-weight="normal">Manager</tspan></text></g></g><g transform="translate(120.0546875, 40)"><rect width="105.8359375" height="392" stroke="black" fill="#cccccc" stroke-width="2" transform="translate(0, 0)" rx="2"/><g transform="translate(4, 4)"><rect width="64.0283203125" height="24" stroke="black" fill="none" stroke-width="0" transform="translate(0, 0)" rx="0"/><text fill="black" font-size="14" font-weight="normal" transform="translate(4, 4)" alignment-baseline="middle" font-family="Arial"><tspan x="0" dy="14" font-family="Arial" font-size="14" font-weight="normal">Graphics</tspan></text></g><g transform="translate(8, 40)"><rect width="89.8359375" height="62.4" stroke="black" fill="white" stroke-width="2" transform="translate(0, 0)" rx="3"/><text fill="black" font-size="16" font-weight="normal" transform="translate(30.69140625, 22.2)" alignment-baseline="middle" font-family="Arial"><tspan x="0" dy="16" font-family="Arial" font-size="16" font-weight="normal">GUI</tspan></text></g><g transform="translate(8, 110.4)"><rect width="89.8359375" height="62.4" stroke="black" fill="white" stroke-width="2" transform="translate(0, 0)" rx="3"/><text fill="black" font-size="16" font-weight="normal" transform="translate(8, 22.2)" alignment-baseline="middle" font-family="Arial"><tspan x="0" dy="16" font-family="Arial" font-size="16" font-weight="normal">Rendering</tspan></text></g><g transform="translate(8, 180.8)"><rect width="89.8359375" height="62.4" stroke="black" fill="white" stroke-width="2" transform="translate(0, 0)" rx="3"/><text fill="black" font-size="16" font-weight="normal" transform="translate(15.1171875, 22.2)" alignment-baseline="middle" font-family="Arial"><tspan x="0" dy="16" font-family="Arial" font-size="16" font-weight="normal">Shaders</tspan></text></g><g transform="translate(8, 251.20000000000002)"><rect width="89.8359375" height="62.4" stroke="black" fill="white" stroke-width="2" transform="translate(0, 0)" rx="3"/><text fill="black" font-size="16" font-weight="normal" transform="translate(13.7890625, 22.2)" alignment-baseline="middle" font-family="Arial"><tspan x="0" dy="16" font-family="Arial" font-size="16" font-weight="normal">Scripting</tspan></text></g><g transform="translate(8, 321.6)"><rect width="89.8359375" height="62.4" stroke="black" fill="white" stroke-width="2" transform="translate(0, 0)" rx="3"/><text fill="black" font-size="16" font-weight="normal" transform="translate(12.4609375, 22.2)" alignment-baseline="middle" font-family="Arial"><tspan x="0" dy="16" font-family="Arial" font-size="16" font-weight="normal">Materials</tspan></text></g></g><g transform="translate(233.890625, 40)"><rect width="108.484375" height="392" stroke="black" fill="#cccccc" stroke-width="2" transform="translate(0, 0)" rx="2"/><g transform="translate(4, 4)"><rect width="56.2421875" height="24" stroke="black" fill="none" stroke-width="0" transform="translate(0, 0)" rx="0"/><text fill="black" font-size="14" font-weight="normal" transform="translate(4, 4)" alignment-baseline="middle" font-family="Arial"><tspan x="0" dy="14" font-family="Arial" font-size="14" font-weight="normal">Physics</tspan></text></g><g transform="translate(8, 40)"><rect width="92.484375" height="80" stroke="black" fill="white" stroke-width="2" transform="translate(0, 0)" rx="3"/><text fill="black" font-size="16" font-weight="normal" transform="translate(15.5625, 31)" alignment-baseline="middle" font-family="Arial"><tspan x="0" dy="16" font-family="Arial" font-size="16" font-weight="normal">Particles</tspan></text></g><g transform="translate(8, 128)"><rect width="92.484375" height="80" stroke="black" fill="white" stroke-width="2" transform="translate(0, 0)" rx="3"/><text fill="black" font-size="16" font-weight="normal" transform="translate(16.00390625, 31)" alignment-baseline="middle" font-family="Arial"><tspan x="0" dy="16" font-family="Arial" font-size="16" font-weight="normal">Collision</tspan></text></g><g transform="translate(8, 216)"><rect width="92.484375" height="80" stroke="black" fill="white" stroke-width="2" transform="translate(0, 0)" rx="3"/><text fill="black" font-size="16" font-weight="normal" transform="translate(9.7734375, 31)" alignment-baseline="middle" font-family="Arial"><tspan x="0" dy="16" font-family="Arial" font-size="16" font-weight="normal">RigidBody</tspan></text></g><g transform="translate(8, 304)"><rect width="92.484375" height="80" stroke="black" fill="white" stroke-width="2" transform="translate(0, 0)" rx="3"/><text fill="black" font-size="16" font-weight="normal" transform="translate(8, 31)" alignment-baseline="middle" font-family="Arial"><tspan x="0" dy="16" font-family="Arial" font-size="16" font-weight="normal">Constrains</tspan></text></g></g><g transform="translate(350.375, 40)"><rect width="83.9248046875" height="392" stroke="black" fill="#cccccc" stroke-width="2" transform="translate(0, 0)" rx="2"/><g transform="translate(4, 4)"><rect width="67.9248046875" height="40" stroke="black" fill="none" stroke-width="0" transform="translate(0, 0)" rx="0"/><text fill="black" font-size="14" font-weight="normal" transform="translate(4, 4)" alignment-baseline="middle" font-family="Arial"><tspan x="0" dy="14" font-family="Arial" font-size="14" font-weight="normal">Resource</tspan><tspan x="0" dy="14" font-family="Arial" font-size="14" font-weight="normal">Manager</tspan></text></g><g transform="translate(8, 56)"><rect width="67.9248046875" height="34" stroke="black" fill="white" stroke-width="2" transform="translate(0, 0)" rx="3"/><text fill="black" font-size="16" font-weight="normal" transform="translate(14.39599609375, 8)" alignment-baseline="middle" font-family="Arial"><tspan x="0" dy="16" font-family="Arial" font-size="16" font-weight="normal">Mesh</tspan></text></g><g transform="translate(8, 98)"><rect width="67.9248046875" height="34" stroke="black" fill="white" stroke-width="2" transform="translate(0, 0)" rx="3"/><text fill="black" font-size="16" font-weight="normal" transform="translate(13.49755859375, 8)" alignment-baseline="middle" font-family="Arial"><tspan x="0" dy="16" font-family="Arial" font-size="16" font-weight="normal">Audio</tspan></text></g><g transform="translate(8, 140)"><rect width="67.9248046875" height="34" stroke="black" fill="white" stroke-width="2" transform="translate(0, 0)" rx="3"/><text fill="black" font-size="16" font-weight="normal" transform="translate(13.64208984375, 8)" alignment-baseline="middle" font-family="Arial"><tspan x="0" dy="16" font-family="Arial" font-size="16" font-weight="normal">Video</tspan></text></g><g transform="translate(8, 182)"><rect width="67.9248046875" height="34" stroke="black" fill="white" stroke-width="2" transform="translate(0, 0)" rx="3"/><text fill="black" font-size="16" font-weight="normal" transform="translate(11.72412109375, 8)" alignment-baseline="middle" font-family="Arial"><tspan x="0" dy="16" font-family="Arial" font-size="16" font-weight="normal">Image</tspan></text></g><g transform="translate(8, 224)"><rect width="67.9248046875" height="34" stroke="black" fill="white" stroke-width="2" transform="translate(0, 0)" rx="3"/><text fill="black" font-size="16" font-weight="normal" transform="translate(19.28662109375, 8)" alignment-baseline="middle" font-family="Arial"><tspan x="0" dy="16" font-family="Arial" font-size="16" font-weight="normal">Text</tspan></text></g><g transform="translate(8, 266)"><rect width="67.9248046875" height="34" stroke="black" fill="white" stroke-width="2" transform="translate(0, 0)" rx="3"/><text fill="black" font-size="16" font-weight="normal" transform="translate(17.95068359375, 8)" alignment-baseline="middle" font-family="Arial"><tspan x="0" dy="16" font-family="Arial" font-size="16" font-weight="normal">Font</tspan></text></g><g transform="translate(8, 308)"><rect width="67.9248046875" height="34" stroke="black" fill="white" stroke-width="2" transform="translate(0, 0)" rx="3"/><text fill="black" font-size="16" font-weight="normal" transform="translate(11.28271484375, 8)" alignment-baseline="middle" font-family="Arial"><tspan x="0" dy="16" font-family="Arial" font-size="16" font-weight="normal">Binary</tspan></text></g><g transform="translate(8, 350)"><rect width="67.9248046875" height="34" stroke="black" fill="white" stroke-width="2" transform="translate(0, 0)" rx="3"/><text fill="black" font-size="16" font-weight="normal" transform="translate(10.38818359375, 8)" alignment-baseline="middle" font-family="Arial"><tspan x="0" dy="16" font-family="Arial" font-size="16" font-weight="normal">Prefab</tspan></text></g></g><g transform="translate(442.2998046875, 40)"><rect width="94.28125" height="392" stroke="black" fill="#cccccc" stroke-width="2" transform="translate(0, 0)" rx="2"/><g transform="translate(4, 4)"><rect width="70.2626953125" height="24" stroke="black" fill="none" stroke-width="0" transform="translate(0, 0)" rx="0"/><text fill="black" font-size="14" font-weight="normal" transform="translate(4, 4)" alignment-baseline="middle" font-family="Arial"><tspan x="0" dy="14" font-family="Arial" font-size="14" font-weight="normal">Animation</tspan></text></g><g transform="translate(8, 40)"><rect width="78.28125" height="50.66666666666667" stroke="black" fill="white" stroke-width="2" transform="translate(0, 0)" rx="3"/><text fill="black" font-size="16" font-weight="normal" transform="translate(8.00390625, 16.333333333333336)" alignment-baseline="middle" font-family="Arial"><tspan x="0" dy="16" font-family="Arial" font-size="16" font-weight="normal">Skeleton</tspan></text></g><g transform="translate(8, 98.66666666666667)"><rect width="78.28125" height="50.66666666666667" stroke="black" fill="white" stroke-width="2" transform="translate(0, 0)" rx="3"/><text fill="black" font-size="16" font-weight="normal" transform="translate(16.90234375, 16.333333333333336)" alignment-baseline="middle" font-family="Arial"><tspan x="0" dy="16" font-family="Arial" font-size="16" font-weight="normal">Poses</tspan></text></g><g transform="translate(8, 157.33333333333334)"><rect width="78.28125" height="50.66666666666667" stroke="black" fill="white" stroke-width="2" transform="translate(0, 0)" rx="3"/><text fill="black" font-size="16" font-weight="normal" transform="translate(25.35546875, 16.333333333333336)" alignment-baseline="middle" font-family="Arial"><tspan x="0" dy="16" font-family="Arial" font-size="16" font-weight="normal">Clip</tspan></text></g><g transform="translate(8, 216)"><rect width="78.28125" height="50.66666666666667" stroke="black" fill="white" stroke-width="2" transform="translate(0, 0)" rx="3"/><text fill="black" font-size="16" font-weight="normal" transform="translate(8.44921875, 16.333333333333336)" alignment-baseline="middle" font-family="Arial"><tspan x="0" dy="16" font-family="Arial" font-size="16" font-weight="normal">Skinning</tspan></text></g><g transform="translate(8, 274.6666666666667)"><rect width="78.28125" height="50.66666666666667" stroke="black" fill="white" stroke-width="2" transform="translate(0, 0)" rx="3"/><text fill="black" font-size="16" font-weight="normal" transform="translate(8, 16.333333333333336)" alignment-baseline="middle" font-family="Arial"><tspan x="0" dy="16" font-family="Arial" font-size="16" font-weight="normal">Blending</tspan></text></g><g transform="translate(8, 333.33333333333337)"><rect width="78.28125" height="50.66666666666667" stroke="black" fill="white" stroke-width="2" transform="translate(0, 0)" rx="3"/><text fill="black" font-size="16" font-weight="normal" transform="translate(18.23828125, 16.333333333333336)" alignment-baseline="middle" font-family="Arial"><tspan x="0" dy="16" font-family="Arial" font-size="16" font-weight="normal">Sprite</tspan></text></g></g><g transform="translate(544.5810546875, 40)"><rect width="105.203125" height="392" stroke="black" fill="#cccccc" stroke-width="2" transform="translate(0, 0)" rx="2"/><g transform="translate(4, 4)"><rect width="78.03515625" height="24" stroke="black" fill="none" stroke-width="0" transform="translate(0, 0)" rx="0"/><text fill="black" font-size="14" font-weight="normal" transform="translate(4, 4)" alignment-baseline="middle" font-family="Arial"><tspan x="0" dy="14" font-family="Arial" font-size="14" font-weight="normal">Networking</tspan></text></g><g transform="translate(8, 40)"><rect width="89.203125" height="168" stroke="black" fill="white" stroke-width="2" transform="translate(0, 0)" rx="3"/><text fill="black" font-size="16" font-weight="normal" transform="translate(19.7109375, 75)" alignment-baseline="middle" font-family="Arial"><tspan x="0" dy="16" font-family="Arial" font-size="16" font-weight="normal">HTTPs</tspan></text></g><g transform="translate(8, 216)"><rect width="89.203125" height="168" stroke="black" fill="white" stroke-width="2" transform="translate(0, 0)" rx="3"/><text fill="black" font-size="16" font-weight="normal" transform="translate(8, 75)" alignment-baseline="middle" font-family="Arial"><tspan x="0" dy="16" font-family="Arial" font-size="16" font-weight="normal">Real-Time</tspan></text></g></g><g transform="translate(657.7841796875, 40)"><rect width="109.3828125" height="392" stroke="black" fill="#cccccc" stroke-width="2" transform="translate(0, 0)" rx="2"/><g transform="translate(4, 4)"><rect width="71.814453125" height="24" stroke="black" fill="none" stroke-width="0" transform="translate(0, 0)" rx="0"/><text fill="black" font-size="14" font-weight="normal" transform="translate(4, 4)" alignment-baseline="middle" font-family="Arial"><tspan x="0" dy="14" font-family="Arial" font-size="14" font-weight="normal">Gameplay</tspan></text></g><g transform="translate(8, 40)"><rect width="93.3828125" height="55.2" stroke="black" fill="white" stroke-width="2" transform="translate(0, 0)" rx="3"/><text fill="black" font-size="16" font-weight="normal" transform="translate(15.5625, 18.6)" alignment-baseline="middle" font-family="Arial"><tspan x="0" dy="16" font-family="Arial" font-size="16" font-weight="normal">Scripting</tspan></text></g><g transform="translate(8, 103.2)"><rect width="93.3828125" height="73.2" stroke="black" fill="white" stroke-width="2" transform="translate(0, 0)" rx="3"/><text fill="black" font-size="16" font-weight="normal" transform="translate(24.00390625, 18.6)" alignment-baseline="middle" font-family="Arial"><tspan x="0" dy="16" font-family="Arial" font-size="16" font-weight="normal">Scene</tspan><tspan x="0" dy="16" font-family="Arial" font-size="16" font-weight="normal">Graph</tspan></text></g><g transform="translate(8, 184.4)"><rect width="93.3828125" height="55.2" stroke="black" fill="white" stroke-width="2" transform="translate(0, 0)" rx="3"/><text fill="black" font-size="16" font-weight="normal" transform="translate(30.23828125, 18.6)" alignment-baseline="middle" font-family="Arial"><tspan x="0" dy="16" font-family="Arial" font-size="16" font-weight="normal">ECS</tspan></text></g><g transform="translate(8, 247.60000000000002)"><rect width="93.3828125" height="73.2" stroke="black" fill="white" stroke-width="2" transform="translate(0, 0)" rx="3"/><text fill="black" font-size="16" font-weight="normal" transform="translate(8, 18.6)" alignment-baseline="middle" font-family="Arial"><tspan x="0" dy="16" font-family="Arial" font-size="16" font-weight="normal">Events &amp;</tspan><tspan x="0" dy="16" font-family="Arial" font-size="16" font-weight="normal">Messaging</tspan></text></g><g transform="translate(8, 328.8)"><rect width="93.3828125" height="55.2" stroke="black" fill="white" stroke-width="2" transform="translate(0, 0)" rx="3"/><text fill="black" font-size="16" font-weight="normal" transform="translate(39.12890625, 18.6)" alignment-baseline="middle" font-family="Arial"><tspan x="0" dy="16" font-family="Arial" font-size="16" font-weight="normal">AI</tspan></text></g></g></g><g transform="translate(8, 674)"><rect width="775.1669921875" height="98" stroke="black" fill="#e6e6e6" stroke-width="2" transform="translate(0, 0)" rx="2"/><g transform="translate(4, 4)"><rect width="44.580078125" height="24" stroke="black" fill="none" stroke-width="0" transform="translate(0, 0)" rx="0"/><text fill="black" font-size="14" font-weight="normal" transform="translate(4, 4)" alignment-baseline="middle" font-family="Arial"><tspan x="0" dy="14" font-family="Arial" font-size="14" font-weight="normal">Editor</tspan></text></g><g transform="translate(8, 40)"><rect width="759.1669921875" height="50" stroke="black" fill="#cccccc" stroke-width="2" transform="translate(0, 0)" rx="2"/><g transform="translate(8, 8)"><rect width="164.071044921875" height="34" stroke="black" fill="white" stroke-width="2" transform="translate(0, 0)" rx="3"/><text fill="black" font-size="16" font-weight="normal" transform="translate(48.2425537109375, 8)" alignment-baseline="middle" font-family="Arial"><tspan x="0" dy="16" font-family="Arial" font-size="16" font-weight="normal">Simulator</tspan></text></g><g transform="translate(180.071044921875, 8)"><rect width="206.477294921875" height="34" stroke="black" fill="white" stroke-width="2" transform="translate(0, 0)" rx="3"/><text fill="black" font-size="16" font-weight="normal" transform="translate(48.2425537109375, 8)" alignment-baseline="middle" font-family="Arial"><tspan x="0" dy="16" font-family="Arial" font-size="16" font-weight="normal">Visual Scripting</tspan></text></g><g transform="translate(394.54833984375, 8)"><rect width="188.102294921875" height="34" stroke="black" fill="white" stroke-width="2" transform="translate(0, 0)" rx="3"/><text fill="black" font-size="16" font-weight="normal" transform="translate(48.2425537109375, 8)" alignment-baseline="middle" font-family="Arial"><tspan x="0" dy="16" font-family="Arial" font-size="16" font-weight="normal">Scene Editor</tspan></text></g><g transform="translate(590.650634765625, 8)"><rect width="160.516357421875" height="34" stroke="black" fill="white" stroke-width="2" transform="translate(0, 0)" rx="3"/><text fill="black" font-size="16" font-weight="normal" transform="translate(48.2425537109375, 8)" alignment-baseline="middle" font-family="Arial"><tspan x="0" dy="16" font-family="Arial" font-size="16" font-weight="normal">Animator</tspan></text></g></g></g><g transform="translate(8, 780)"><rect width="775.1669921875" height="82" stroke="black" fill="#e6e6e6" stroke-width="2" transform="translate(0, 0)" rx="2"/><g transform="translate(4, 4)"><rect width="62.4765625" height="24" stroke="black" fill="none" stroke-width="0" transform="translate(0, 0)" rx="0"/><text fill="black" font-size="14" font-weight="normal" transform="translate(4, 4)" alignment-baseline="middle" font-family="Arial"><tspan x="0" dy="14" font-family="Arial" font-size="14" font-weight="normal">Samples</tspan></text></g><g transform="translate(8, 40)"><rect width="759.1669921875" height="34" stroke="black" fill="white" stroke-width="2" transform="translate(0, 0)" rx="3"/><text fill="black" font-size="16" font-weight="normal" transform="translate(353.34521484375, 8)" alignment-baseline="middle" font-family="Arial"><tspan x="0" dy="16" font-family="Arial" font-size="16" font-weight="normal">Match3</tspan></text></g></g></g></svg>